# xmcd
#
# Track frame offsets:
#	150
#	20456
#	41656
#	62602
#	89293
#	114598
#	133721
#	156142
#	173487
#	192940
#	209699
#
# Disc length: 3091 seconds
#
# Revision: 0
# Processed by: cddbd v1.5.2PL0 Copyright (c) Steve Scherf et al.
# Submitted via: MuRip/1.0beta +https://www.muman.ch
#
DISCID=920c110b
DTITLE=Tuff Enuff - Tryin To Find My Way Home
DYEAR=1900
DGENRE=
TTITLE0=About Time
TTITLE1=Gimme One Reason
TTITLE2=Can't Lie To Me
TTITLE3=Devil's Company
TTITLE4=Tryin To Find My Way Home
TTITLE5=Release Me
TTITLE6=Walk Away
TTITLE7=Don't Call Me Crazy
TTITLE8=In Between
TTITLE9=Nothing Comes For Free
TTITLE10=Don't Tell Me What To Do
EXTD=Barcode: 8 37101 33553 9
EXTT0=
EXTT1=
EXTT2=
EXTT3=
EXTT4=
EXTT5=
EXTT6=
EXTT7=
EXTT8=
EXTT9=
EXTT10=
PLAYORDER=
